<svg width="900" height="460" xmlns="http://www.w3.org/2000/svg" style="font-family:Arial,sans-serif;background:white">
<defs><marker id="a" viewBox="0 0 10 10" refX="8" refY="5" markerWidth="6" markerHeight="6" orient="auto-start-reverse"><path d="M2 1L8 5L2 9" fill="none" stroke="context-stroke" stroke-width="1.5" stroke-linecap="round" stroke-linejoin="round"/></marker></defs>
<text x="450" y="24" text-anchor="middle" font-size="16" font-weight="bold" fill="#333">Связь экранов UI — навигация</text>

<!-- Admin section -->
<rect x="30" y="40" width="840" height="170" rx="10" fill="none" stroke="#2563eb" stroke-width="1" stroke-dasharray="6 3"/>
<text x="50" y="60" font-size="11" font-weight="bold" fill="#2563eb">Сотрудник / Аналитик / Руководитель</text>
<rect x="50" y="75" width="140" height="44" rx="6" fill="#dbeafe" stroke="#2563eb"/><text x="120" y="101" text-anchor="middle" font-size="11" font-weight="bold" fill="#1e40af">Дашборд</text>
<rect x="230" y="75" width="140" height="44" rx="6" fill="#dbeafe" stroke="#2563eb"/><text x="300" y="101" text-anchor="middle" font-size="11" font-weight="bold" fill="#1e40af">Заявки</text>
<rect x="410" y="75" width="140" height="44" rx="6" fill="#dbeafe" stroke="#2563eb"/><text x="480" y="95" text-anchor="middle" font-size="11" font-weight="bold" fill="#1e40af">Карточка</text><text x="480" y="109" text-anchor="middle" font-size="9" fill="#3b82f6">заявки</text>
<rect x="590" y="75" width="120" height="44" rx="6" fill="#dbeafe" stroke="#2563eb"/><text x="650" y="101" text-anchor="middle" font-size="11" font-weight="bold" fill="#1e40af">Программы</text>
<rect x="50" y="145" width="140" height="44" rx="6" fill="#d1fae5" stroke="#16a34a"/><text x="120" y="171" text-anchor="middle" font-size="11" font-weight="bold" fill="#166534">Экспорт CSV</text>
<rect x="230" y="145" width="140" height="44" rx="6" fill="#fef9c3" stroke="#ca8a04"/><text x="300" y="171" text-anchor="middle" font-size="11" font-weight="bold" fill="#854d0e">Swagger</text>
<line x1="192" y1="97" x2="228" y2="97" stroke="#333" stroke-width="1" marker-end="url(#a)"/>
<line x1="372" y1="97" x2="408" y2="97" stroke="#333" stroke-width="1" marker-end="url(#a)"/>
<line x1="552" y1="97" x2="588" y2="97" stroke="#333" stroke-width="1" stroke-dasharray="4 3" marker-end="url(#a)"/>
<line x1="120" y1="121" x2="120" y2="143" stroke="#333" stroke-width="1" marker-end="url(#a)"/>
<line x1="300" y1="121" x2="300" y2="143" stroke="#333" stroke-width="1" stroke-dasharray="4 3" marker-end="url(#a)"/>

<!-- Applicant section -->
<rect x="30" y="250" width="840" height="130" rx="10" fill="none" stroke="#f59e0b" stroke-width="1" stroke-dasharray="6 3"/>
<text x="50" y="270" font-size="11" font-weight="bold" fill="#f59e0b">Абитуриент (личный кабинет)</text>
<rect x="50" y="285" width="130" height="44" rx="6" fill="#fef3c7" stroke="#f59e0b"/><text x="115" y="311" text-anchor="middle" font-size="11" font-weight="bold" fill="#92400e">Авторизация</text>
<rect x="220" y="285" width="130" height="44" rx="6" fill="#fef3c7" stroke="#f59e0b"/><text x="285" y="311" text-anchor="middle" font-size="11" font-weight="bold" fill="#92400e">Мои заявки</text>
<rect x="390" y="285" width="130" height="44" rx="6" fill="#fef3c7" stroke="#f59e0b"/><text x="455" y="305" text-anchor="middle" font-size="11" font-weight="bold" fill="#92400e">Подача</text><text x="455" y="319" text-anchor="middle" font-size="9" fill="#b45309">заявки</text>
<rect x="560" y="285" width="130" height="44" rx="6" fill="#fef3c7" stroke="#f59e0b"/><text x="625" y="305" text-anchor="middle" font-size="11" font-weight="bold" fill="#92400e">Статус</text><text x="625" y="319" text-anchor="middle" font-size="9" fill="#b45309">заявки</text>
<line x1="182" y1="307" x2="218" y2="307" stroke="#333" stroke-width="1" marker-end="url(#a)"/>
<line x1="352" y1="307" x2="388" y2="307" stroke="#333" stroke-width="1" marker-end="url(#a)"/>
<line x1="522" y1="307" x2="558" y2="307" stroke="#333" stroke-width="1" marker-end="url(#a)"/>

<!-- Cross-role arrow -->
<path d="M455 285 L455 250 L480 220 L480 121" fill="none" stroke="#f59e0b" stroke-width="1" stroke-dasharray="4 3" marker-end="url(#a)"/>
<text x="500" y="235" font-size="9" fill="#b45309">Заявка попадает в систему комиссии</text>

<!-- Legend -->
<rect x="50" y="410" width="800" height="35" rx="6" fill="#fafafa" stroke="#ddd" stroke-width="0.5"/>
<rect x="70" y="420" width="14" height="14" rx="3" fill="#dbeafe" stroke="#2563eb"/><text x="90" y="432" font-size="10" fill="#666">Экраны комиссии</text>
<rect x="230" y="420" width="14" height="14" rx="3" fill="#fef3c7" stroke="#f59e0b"/><text x="250" y="432" font-size="10" fill="#666">Экраны абитуриента</text>
<rect x="410" y="420" width="14" height="14" rx="3" fill="#d1fae5" stroke="#16a34a"/><text x="430" y="432" font-size="10" fill="#666">Вспомогательные</text>
<line x1="570" y1="427" x2="600" y2="427" stroke="#333" stroke-width="1" marker-end="url(#a)"/><text x="608" y="432" font-size="10" fill="#666">Переход</text>
<line x1="690" y1="427" x2="720" y2="427" stroke="#333" stroke-width="1" stroke-dasharray="4 3" marker-end="url(#a)"/><text x="728" y="432" font-size="10" fill="#666">Опциональный</text>
</svg>